<?xml version="1.0" encoding="UTF-8" standalone="no"?>
<!-- Created with Inkscape (http://www.inkscape.org/) -->

<svg
   version="1.1"
   id="svg2"
   viewBox="0 0 681.97333 225.48"
   preserveAspectRatio="xMidYMid meet"
   sodipodi:docname="cedimed_digitaal_RGB.eps"
   xmlns:inkscape="http://www.inkscape.org/namespaces/inkscape"
   xmlns:sodipodi="http://sodipodi.sourceforge.net/DTD/sodipodi-0.dtd"
   xmlns="http://www.w3.org/2000/svg"
   xmlns:svg="http://www.w3.org/2000/svg">
  <defs
     id="defs6" />
  <sodipodi:namedview
     id="namedview4"
     pagecolor="#ffffff"
     bordercolor="#000000"
     borderopacity="0.25"
     inkscape:showpageshadow="2"
     inkscape:pageopacity="0.0"
     inkscape:pagecheckerboard="0"
     inkscape:deskcolor="#d1d1d1" />
  <g
     id="g8"
     inkscape:groupmode="layer"
     inkscape:label="ink_ext_XXXXXX"
     transform="matrix(1.3333333,0,0,-1.3333333,0,225.48)">
    <g
       id="g10"
       transform="scale(0.1)">
      <path
         d="m 848.273,886.637 c 24.161,21.332 49.774,40.133 76.504,56.402 C 1034.98,1128.32 1013.7,1370.09 860.441,1533.88 689.598,1353.73 685.047,1072.1 848.273,886.637"
         style="fill:#1b2734;fill-opacity:1;fill-rule:nonzero;stroke:none"
         id="path12" />
      <path
         d="m 1547.51,1537.63 c -83.57,84.73 -190.13,132.9 -299.9,144.57 -11.73,0.93 -23.51,1.59 -35.4,1.67 -1.13,0.01 -2.26,0.01 -3.38,0.01 -127.02,0 -246.627,-49.04 -337.146,-138.33 -3.868,-3.82 -7.532,-7.75 -11.243,-11.67 153.259,-163.79 174.539,-405.56 64.336,-590.841 203.553,123.881 471.813,100.011 650.173,-70.531 161.91,193.432 153.31,481.872 -27.44,665.122"
         style="fill:#4a5240;fill-opacity:1;fill-rule:nonzero;stroke:none"
         id="path14" />
      <path
         d="M 481.332,9.01953 C 609.199,8.58203 730.531,57.2695 821.859,147.34 c 3.551,3.512 6.934,7.14 10.364,10.742 -153.336,164.34 -174.102,406.879 -62.743,592.207 -85.636,-52.309 -182.746,-78.57 -279.886,-78.57 -133.981,0 -267.797,49.824 -371.317,148.969 C -46.875,627.25 -39.3438,336.281 142.57,151.852 c 0.004,0 0.004,0 0.008,0 L 142.734,152 C 232.816,60.6719 353.063,9.89844 481.332,9.01953"
         style="fill:#f46d28;fill-opacity:1;fill-rule:nonzero;stroke:none"
         id="path16" />
      <path
         d="m 819.453,1573.32 c -92.129,78.39 -206.25,117.81 -320.465,117.81 -125.605,0 -251.25,-47.48 -347.738,-142.65 -23.031,-22.72 -43.273,-47.18 -60.9141,-72.89 -124.1054,-185.46 -105.3593,-439.3 57.3281,-604.235 3.25,-3.296 6.621,-6.398 9.941,-9.582 95.051,88.668 216.278,133.051 337.508,133.055 88.797,0.004 177.375,-24.137 255.774,-71.531 -124.379,203.183 -101.172,471.323 68.566,650.023"
         style="fill:#2850a9;fill-opacity:1;fill-rule:nonzero;stroke:none"
         id="path18" />
      <path
         d="m 1545.88,821.527 c -3.23,3.274 -6.57,6.352 -9.86,9.508 -95.57,-90.89 -218.31,-136.379 -341.06,-136.379 -85.27,0 -170.43,22.028 -246.48,65.77 l -0.171,0.289 C 996.836,678.172 1022.41,583.789 1021.74,485.551 1020.78,347.539 968.066,217.922 873.148,118.57 965.375,39.8711 1079.69,0.308594 1194.14,0.308594 c 125.33,0 250.72,47.300806 347.11,142.062406 l -0.04,0.039 c 188.53,185.949 190.62,490.602 4.67,679.117"
         style="fill:#b2b204;fill-opacity:1;fill-rule:nonzero;stroke:none"
         id="path20" />
      <path
         d="m 1536.02,831.035 c -180.08,172.545 -462.99,177.675 -649.063,13.895 23.301,-26.305 43.863,-54.461 61.352,-84.215 76.121,-43.797 161.301,-66.059 246.651,-66.059 122.75,0 245.49,45.489 341.06,136.379"
         style="fill:#363f16;fill-opacity:1;fill-rule:nonzero;stroke:none"
         id="path22" />
      <path
         d="m 1194.96,694.656 c -85.35,0 -170.53,22.262 -246.651,66.059 l 0.171,-0.289 c 76.05,-43.742 161.21,-65.77 246.48,-65.77"
         style="fill:#363f16;fill-opacity:1;fill-rule:nonzero;stroke:none"
         id="path24" />
      <path
         d="M 495.113,994.828 C 373.883,994.824 252.656,950.441 157.605,861.773 337.68,689.309 620.477,684.27 806.504,847.992 c -20.996,23.797 -39.524,49.012 -55.617,75.305 -78.399,47.394 -166.977,71.535 -255.774,71.531"
         style="fill:#323938;fill-opacity:1;fill-rule:nonzero;stroke:none"
         id="path26" />
      <path
         d="m 750.887,923.297 v 0 c 0.004,0 0.004,-0.004 0.008,-0.004 -0.004,0 -0.004,0.004 -0.008,0.004"
         style="fill:#ffffff;fill-opacity:1;fill-rule:nonzero;stroke:none"
         id="path28" />
      <path
         d="M 845.168,806.363 C 821.246,785.207 795.945,766.457 769.48,750.289 658.121,564.961 678.887,322.422 832.223,158.082 c 84.726,88.797 131.765,204.578 132.621,327.859 0.812,119.09 -41.531,231.813 -119.676,320.422"
         style="fill:#d84e2d;fill-opacity:1;fill-rule:nonzero;stroke:none"
         id="path30" />
      <path
         d="m 2124.2,0 h -36.59 v 1684.4 h 36.59 V 0"
         style="fill:#56543d;fill-opacity:1;fill-rule:nonzero;stroke:none"
         id="path32" />
      <path
         d="m 2746.86,1284.31 c 0,54.64 -21.18,106.19 -78.4,106.19 -89.7,0 -103.12,-130.81 -103.12,-203.91 0,-98.5 17.65,-242.395 134.91,-242.395 47.31,0 81.22,20.004 117.25,50.785 v -72.332 c -38.85,-25.394 -85.46,-33.859 -129.97,-33.859 -152.57,0 -204.83,138.511 -204.83,283.941 0,136.97 48.02,263.95 192.12,263.95 88.99,0 162.45,-47.71 162.45,-152.37 h -90.41"
         style="fill:#4a523f;fill-opacity:1;fill-rule:nonzero;stroke:none"
         id="path34" />
      <path
         d="m 2898.78,897.254 v 530.956 h 257.09 v -50.78 h -179.4 V 1198.9 h 169.52 v -50.79 H 2976.47 V 952.664 h 185.06 v -55.41 h -262.75"
         style="fill:#4a523f;fill-opacity:1;fill-rule:nonzero;stroke:none"
         id="path36" />
      <path
         d="m 3422.2,1364.34 c -22.6,10.78 -48.74,13.09 -73.46,13.09 h -31.78 V 948.043 h 31.78 c 132.08,0 143.39,100.797 143.39,220.077 0,66.17 -4.95,164.67 -69.93,196.22 z m -73.46,-467.086 h -109.47 v 530.956 h 109.47 c 164.57,0 221.08,-84.65 221.08,-260.09 0,-177.753 -50.85,-270.866 -221.08,-270.866"
         style="fill:#4a523f;fill-opacity:1;fill-rule:nonzero;stroke:none"
         id="path38" />
      <path
         d="m 3661.7,897.254 v 530.956 h 77.69 V 897.254 h -77.69"
         style="fill:#4a523f;fill-opacity:1;fill-rule:nonzero;stroke:none"
         id="path40" />
      <path
         d="m 4261.39,897.254 v 458.626 h -1.4 L 4117.3,897.254 h -59.33 l -142.68,458.626 h -1.42 V 897.254 h -58.62 v 530.956 h 103.83 l 134.91,-431.69 h 1.42 l 135.62,431.69 h 100.29 V 897.254 h -69.93"
         style="fill:#4a523f;fill-opacity:1;fill-rule:nonzero;stroke:none"
         id="path42" />
      <path
         d="m 4443.71,897.254 v 530.956 h 257.09 v -50.78 H 4521.4 V 1198.9 h 169.51 v -50.79 H 4521.4 V 952.664 h 185.06 v -55.41 h -262.75"
         style="fill:#4a523f;fill-opacity:1;fill-rule:nonzero;stroke:none"
         id="path44" />
      <path
         d="m 4967.12,1364.34 c -22.6,10.78 -48.73,13.09 -73.46,13.09 h -31.77 V 948.043 h 31.77 c 132.09,0 143.4,100.797 143.4,220.077 0,66.17 -4.96,164.67 -69.94,196.22 z m -73.46,-467.086 h -109.47 v 530.956 h 109.47 c 164.58,0 221.09,-84.65 221.09,-260.09 0,-177.753 -50.86,-270.866 -221.09,-270.866"
         style="fill:#4a523f;fill-opacity:1;fill-rule:nonzero;stroke:none"
         id="path46" />
      <path
         d="m 2615.48,453.031 h -33.19 V 249.109 h 33.19 c 68.52,0 117.96,13.082 117.96,101.582 0,81.571 -52.26,102.34 -117.96,102.34 z m 0,225.469 h -33.19 V 503.82 h 33.19 c 59.34,0 94.66,22.321 94.66,92.34 0,70.789 -38.15,82.34 -94.66,82.34 z m 0,-480.168 h -110.89 v 530.949 h 110.89 c 81.94,0 172.35,-14.617 172.35,-126.961 0,-60.789 -32.49,-104.66 -85.47,-120.82 v -1.531 c 67.81,-13.848 108.78,-58.489 108.78,-136.207 0,-130.813 -100.3,-145.43 -195.66,-145.43"
         style="fill:#4a523f;fill-opacity:1;fill-rule:nonzero;stroke:none"
         id="path48" />
      <path
         d="m 2966.59,366.082 v -167.75 h -71.36 v 366.277 h 71.36 V 471.5 h 1.4 c 24.01,53.09 49.44,96.191 108.78,101.57 v -80.789 c -79.11,-2.312 -110.18,-39.25 -110.18,-126.199"
         style="fill:#4a523f;fill-opacity:1;fill-rule:nonzero;stroke:none"
         id="path50" />
      <path
         d="m 3347.31,198.332 v 86.949 h -1.42 c -22.6,-53.859 -59.32,-95.422 -117.24,-95.422 -56.5,0 -84.76,50.02 -84.76,106.961 v 267.789 h 71.34 V 335.301 c 0,-32.321 1.41,-87.719 42.38,-87.719 66.4,0 90.41,108.5 90.41,165.43 v 151.597 h 71.34 V 198.332 h -72.05"
         style="fill:#4a523f;fill-opacity:1;fill-rule:nonzero;stroke:none"
         id="path52" />
      <path
         d="m 3586.1,189.859 c -31.07,0 -60.03,5.391 -89.69,16.161 v 71.562 c 27.54,-20.773 58.62,-38.473 93.22,-38.473 26.15,0 57.92,12.313 57.92,46.172 0,64.641 -151.86,77.719 -151.86,182.367 0,74.641 55.81,105.422 117.96,105.422 26.84,0 52.97,-6.148 79.1,-14.621 v -66.168 c -26.13,19.231 -52.26,36.16 -84.75,36.16 -21.9,0 -48.03,-10 -48.03,-38.472 0,-66.18 153.98,-72.328 153.98,-189.297 0,-82.332 -61.45,-110.813 -127.85,-110.813"
         style="fill:#4a523f;fill-opacity:1;fill-rule:nonzero;stroke:none"
         id="path54" />
      <path
         d="m 3872.2,189.859 c -31.07,0 -60.03,5.391 -89.69,16.161 v 71.562 c 27.53,-20.773 58.62,-38.473 93.22,-38.473 26.15,0 57.92,12.313 57.92,46.172 0,64.641 -151.86,77.719 -151.86,182.367 0,74.641 55.81,105.422 117.96,105.422 26.84,0 52.97,-6.148 79.1,-14.621 v -66.168 c -26.13,19.231 -52.26,36.16 -84.75,36.16 -21.9,0 -48.04,-10 -48.04,-38.472 0,-66.18 153.99,-72.328 153.99,-189.297 0,-82.332 -61.45,-110.813 -127.85,-110.813"
         style="fill:#4a523f;fill-opacity:1;fill-rule:nonzero;stroke:none"
         id="path56" />
      <path
         d="m 4198.56,540.762 c -43.09,0 -64.27,-40.024 -67.1,-82.34 h 129.26 c 0,43.09 -17.65,82.34 -62.16,82.34 z M 4129.34,423.02 c 0,-86.95 37.44,-192.372 130.67,-192.372 21.9,0 43.79,5.383 64.28,15.391 v -35.398 c -33.91,-15.391 -61.45,-20.782 -98.19,-20.782 -116.54,0 -168.1,88.493 -168.1,207.77 0,104.652 40.27,175.441 143.39,175.441 91.12,0 129.26,-56.172 129.26,-150.05 h -201.31"
         style="fill:#4a523f;fill-opacity:1;fill-rule:nonzero;stroke:none"
         id="path58" />
      <path
         d="m 4413.33,198.332 v 530.949 h 71.33 V 198.332 h -71.33"
         style="fill:#4a523f;fill-opacity:1;fill-rule:nonzero;stroke:none"
         id="path60" />
      <path
         d="m 4655.61,189.859 c -31.07,0 -60.03,5.391 -89.69,16.161 v 71.562 c 27.54,-20.773 58.62,-38.473 93.22,-38.473 26.15,0 57.92,12.313 57.92,46.172 0,64.641 -151.86,77.719 -151.86,182.367 0,74.641 55.81,105.422 117.96,105.422 26.84,0 52.97,-6.148 79.11,-14.621 v -66.168 c -26.14,19.231 -52.27,36.16 -84.76,36.16 -21.9,0 -48.03,-10 -48.03,-38.472 0,-66.18 153.98,-72.328 153.98,-189.297 0,-82.332 -61.45,-110.813 -127.85,-110.813"
         style="fill:#4a523f;fill-opacity:1;fill-rule:nonzero;stroke:none"
         id="path62" />
    </g>
  </g>
</svg>
